<?xml version="1.0" encoding="UTF-8"?>
<svg xmlns="http://www.w3.org/2000/svg"
     xmlns:xlink="http://www.w3.org/1999/xlink"
     xmlns:gadfly="http://www.gadflyjl.org/ns"
     version="1.2"
     width="101.6mm" height="101.6mm" viewBox="0 0 101.6 101.6"
     stroke="none"
     fill="#000000"
     stroke-width="0.3"
     font-size="3.88"
>
<g class="plotroot xscalable yscalable" id="img-051e4f1c-1">
  <g font-size="3.88" font-family="'PT Sans','Helvetica Neue','Helvetica',sans-serif" fill="#564A55" stroke="#000000" stroke-opacity="0.000" id="img-051e4f1c-2">
    <text x="56.44" y="89.99" text-anchor="middle" dy="0.6em">wage</text>
  </g>
  <g class="guide xlabels" font-size="2.82" font-family="'PT Sans Caption','Helvetica Neue','Helvetica',sans-serif" fill="#6C606B" id="img-051e4f1c-3">
    <text x="18.28" y="83.32" text-anchor="middle" dy="0.6em">6</text>
    <text x="37.36" y="83.32" text-anchor="middle" dy="0.6em">8</text>
    <text x="56.44" y="83.32" text-anchor="middle" dy="0.6em">10</text>
    <text x="75.52" y="83.32" text-anchor="middle" dy="0.6em">12</text>
    <text x="94.6" y="83.32" text-anchor="middle" dy="0.6em">14</text>
  </g>
<g clip-path="url(#img-051e4f1c-4)">
  <g id="img-051e4f1c-5">
    <g pointer-events="visible" opacity="1" fill="#000000" fill-opacity="0.000" stroke="#000000" stroke-opacity="0.000" class="guide background" id="img-051e4f1c-6">
      <rect x="16.28" y="5" width="80.32" height="77.32"/>
    </g>
    <g class="guide ygridlines xfixed" stroke-dasharray="0.5,0.5" stroke-width="0.2" stroke="#D0D0E0" id="img-051e4f1c-7">
      <path fill="none" d="M16.28,80.31 L 96.6 80.31"/>
      <path fill="none" d="M16.28,61.99 L 96.6 61.99"/>
      <path fill="none" d="M16.28,43.66 L 96.6 43.66"/>
      <path fill="none" d="M16.28,25.33 L 96.6 25.33"/>
      <path fill="none" d="M16.28,7 L 96.6 7"/>
    </g>
    <g class="guide xgridlines yfixed" stroke-dasharray="0.5,0.5" stroke-width="0.2" stroke="#D0D0E0" id="img-051e4f1c-8">
      <path fill="none" d="M18.28,5 L 18.28 82.32"/>
      <path fill="none" d="M37.36,5 L 37.36 82.32"/>
      <path fill="none" d="M56.44,5 L 56.44 82.32"/>
      <path fill="none" d="M75.52,5 L 75.52 82.32"/>
      <path fill="none" d="M94.6,5 L 94.6 82.32"/>
    </g>
    <g class="plotpanel" id="img-051e4f1c-9">
      <g stroke-width="0.3" fill="#000000" fill-opacity="0.000" class="geometry" stroke-dasharray="none" stroke="#00BFFF" id="img-051e4f1c-10">
        <path fill="none" d="M25.92,66.52 L 26 66.44 26.08 66.35 26.16 66.26 26.24 66.18 26.32 66.09 26.4 66.01 26.48 65.93 26.56 65.84 26.64 65.76 26.72 65.68 26.8 65.6 26.88 65.51 26.95 65.43 27.03 65.35 27.11 65.27 27.19 65.19 27.27 65.12 27.35 65.04 27.43 64.96 27.51 64.88 27.59 64.81 27.67 64.73 27.75 64.65 27.83 64.58 27.91 64.5 27.99 64.43 28.07 64.35 28.15 64.28 28.23 64.21 28.31 64.13 28.39 64.06 28.47 63.99 28.55 63.92 28.63 63.85 28.7 63.78 28.78 63.71 28.86 63.64 28.94 63.57 29.02 63.5 29.1 63.43 29.18 63.36 29.26 63.29 29.34 63.23 29.42 63.16 29.5 63.09 29.58 63.03 29.66 62.96 29.74 62.9 29.82 62.83 29.9 62.77 29.98 62.7 30.06 62.64 30.14 62.57 30.22 62.51 30.3 62.45 30.38 62.39 30.45 62.32 30.53 62.26 30.61 62.2 30.69 62.14 30.77 62.08 30.85 62.02 30.93 61.96 31.01 61.9 31.09 61.84 31.17 61.78 31.25 61.72 31.33 61.66 31.41 61.6 31.49 61.54 31.57 61.49 31.65 61.43 31.73 61.37 31.81 61.32 31.89 61.26 31.97 61.2 32.05 61.15 32.13 61.09 32.2 61.04 32.28 60.98 32.36 60.93 32.44 60.87 32.52 60.82 32.6 60.76 32.68 60.71 32.76 60.66 32.84 60.6 32.92 60.55 33 60.5 33.08 60.44 33.16 60.39 33.24 60.34 33.32 60.29 33.4 60.24 33.48 60.18 33.56 60.13 33.64 60.08 33.72 60.03 33.8 59.98 33.88 59.93 33.95 59.88 34.03 59.83 34.11 59.78 34.19 59.73 34.27 59.68 34.35 59.63 34.43 59.58 34.51 59.53 34.59 59.48 34.67 59.44 34.75 59.39 34.83 59.34 34.91 59.29 34.99 59.24 35.07 59.19 35.15 59.15 35.23 59.1 35.31 59.05 35.39 59 35.47 58.96 35.55 58.91 35.63 58.86 35.7 58.82 35.78 58.77 35.86 58.72 35.94 58.68 36.02 58.63 36.1 58.58 36.18 58.54 36.26 58.49 36.34 58.44 36.42 58.4 36.5 58.35 36.58 58.31 36.66 58.26 36.74 58.22 36.82 58.17 36.9 58.12 36.98 58.08 37.06 58.03 37.14 57.99 37.22 57.94 37.3 57.9 37.38 57.85 37.45 57.81 37.53 57.76 37.61 57.72 37.69 57.67 37.77 57.63 37.85 57.58 37.93 57.54 38.01 57.49 38.09 57.45 38.17 57.4 38.25 57.36 38.33 57.31 38.41 57.27 38.49 57.22 38.57 57.18 38.65 57.13 38.73 57.08 38.81 57.02 38.89 56.97 38.97 56.92 39.05 56.87 39.13 56.82 39.2 56.76 39.28 56.71 39.36 56.66 39.44 56.61 39.52 56.56 39.6 56.52 39.68 56.47 39.76 56.42 39.84 56.37 39.92 56.32 40 56.27 40.08 56.22 40.16 56.18 40.24 56.13 40.32 56.08 40.4 56.04 40.48 55.99 40.56 55.94 40.64 55.9 40.72 55.85 40.8 55.81 40.88 55.76 40.95 55.71 41.03 55.67 41.11 55.62 41.19 55.58 41.27 55.53 41.35 55.49 41.43 55.44 41.51 55.4 41.59 55.35 41.67 55.31 41.75 55.26 41.83 55.21 41.91 55.16 41.99 55.12 42.07 55.07 42.15 55.02 42.23 54.97 42.31 54.93 42.39 54.88 42.47 54.83 42.55 54.78 42.63 54.74 42.7 54.69 42.78 54.64 42.86 54.59 42.94 54.54 43.02 54.49 43.1 54.45 43.18 54.4 43.26 54.35 43.34 54.3 43.42 54.25 43.5 54.2 43.58 54.15 43.66 54.1 43.74 54.05 43.82 54 43.9 53.96 43.98 53.91 44.06 53.86 44.14 53.81 44.22 53.75 44.3 53.7 44.38 53.65 44.45 53.59 44.53 53.54 44.61 53.49 44.69 53.43 44.77 53.38 44.85 53.32 44.93 53.27 45.01 53.21 45.09 53.16 45.17 53.1 45.25 53.04 45.33 52.99 45.41 52.93 45.49 52.87 45.57 52.82 45.65 52.76 45.73 52.7 45.81 52.64 45.89 52.58 45.97 52.53 46.05 52.47 46.13 52.41 46.2 52.35 46.28 52.29 46.36 52.23 46.44 52.17 46.52 52.11 46.6 52.05 46.68 51.99 46.76 51.93 46.84 51.86 46.92 51.8 47 51.74 47.08 51.68 47.16 51.61 47.24 51.55 47.32 51.49 47.4 51.42 47.48 51.36 47.56 51.29 47.64 51.23 47.72 51.16 47.8 51.09 47.88 51.03 47.95 50.96 48.03 50.89 48.11 50.82 48.19 50.75 48.27 50.69 48.35 50.62 48.43 50.55 48.51 50.48 48.59 50.41 48.67 50.33 48.75 50.26 48.83 50.19 48.91 50.12 48.99 50.04 49.07 49.97 49.15 49.89 49.23 49.82 49.31 49.74 49.39 49.67 49.47 49.59 49.55 49.51 49.63 49.44 49.7 49.36 49.78 49.28 49.86 49.2 49.94 49.13 50.02 49.05 50.1 48.97 50.18 48.89 50.26 48.81 50.34 48.73 50.42 48.65 50.5 48.56 50.58 48.48 50.66 48.41 50.74 48.33 50.82 48.25 50.9 48.17 50.98 48.09 51.06 48.01 51.14 47.93 51.22 47.85 51.3 47.76 51.38 47.69 51.45 47.61 51.53 47.53 51.61 47.45 51.69 47.37 51.77 47.29 51.85 47.21 51.93 47.14 52.01 47.06 52.09 46.98 52.17 46.9 52.25 46.82 52.33 46.74 52.41 46.66 52.49 46.59 52.57 46.51 52.65 46.43 52.73 46.35 52.81 46.27 52.89 46.19 52.97 46.12 53.05 46.04 53.13 45.96 53.2 45.88 53.28 45.8 53.36 45.72 53.44 45.64 53.52 45.56 53.6 45.48 53.68 45.41 53.76 45.33 53.84 45.25 53.92 45.17 54 45.09 54.08 45.01 54.16 44.93 54.24 44.85 54.32 44.77 54.4 44.69 54.48 44.61 54.56 44.53 54.64 44.46 54.72 44.38 54.8 44.3 54.88 44.21 54.95 44.13 55.03 44.05 55.11 43.97 55.19 43.9 55.27 43.82 55.35 43.74 55.43 43.66 55.51 43.58 55.59 43.5 55.67 43.42 55.75 43.34 55.83 43.26 55.91 43.18 55.99 43.1 56.07 43.03 56.15 42.95 56.23 42.87 56.31 42.79 56.39 42.72 56.47 42.64 56.55 42.57 56.63 42.49 56.7 42.42 56.78 42.34 56.86 42.27 56.94 42.2 57.02 42.13 57.1 42.06 57.18 41.99 57.26 41.92 57.34 41.85 57.42 41.79 57.5 41.72 57.58 41.65 57.66 41.58 57.74 41.52 57.82 41.46 57.9 41.4 57.98 41.34 58.06 41.28 58.14 41.22 58.22 41.16 58.3 41.1 58.38 41.05 58.45 40.99 58.53 40.94 58.61 40.89 58.69 40.83 58.77 40.78 58.85 40.73 58.93 40.67 59.01 40.62 59.09 40.57 59.17 40.52 59.25 40.47 59.33 40.43 59.41 40.39 59.49 40.35 59.57 40.31 59.65 40.26 59.73 40.22 59.81 40.18 59.89 40.14 59.97 40.09 60.05 40.05 60.13 40.01 60.2 39.97 60.28 39.92 60.36 39.88 60.44 39.84 60.52 39.79 60.6 39.75 60.68 39.7 60.76 39.66 60.84 39.61 60.92 39.56 61 39.51 61.08 39.45 61.16 39.4 61.24 39.35 61.32 39.3 61.4 39.24 61.48 39.19 61.56 39.13 61.64 39.08 61.72 39.02 61.8 38.96 61.88 38.91 61.95 38.85 62.03 38.79 62.11 38.74 62.19 38.68 62.27 38.62 62.35 38.56 62.43 38.5 62.51 38.44 62.59 38.39 62.67 38.33 62.75 38.27 62.83 38.21 62.91 38.15 62.99 38.09 63.07 38.03 63.15 37.97 63.23 37.91 63.31 37.85 63.39 37.79 63.47 37.74 63.55 37.68 63.63 37.62 63.7 37.56 63.78 37.5 63.86 37.44 63.94 37.39 64.02 37.33 64.1 37.27 64.18 37.21 64.26 37.15 64.34 37.09 64.42 37.04 64.5 36.98 64.58 36.92 64.66 36.86 64.74 36.8 64.82 36.75 64.9 36.69 64.98 36.63 65.06 36.58 65.14 36.52 65.22 36.46 65.3 36.4 65.37 36.35 65.45 36.29 65.53 36.23 65.61 36.17 65.69 36.12 65.77 36.06 65.85 36.01 65.93 35.95 66.01 35.89 66.09 35.84 66.17 35.78 66.25 35.73 66.33 35.68 66.41 35.62 66.49 35.57 66.57 35.52 66.65 35.46 66.73 35.41 66.81 35.35 66.89 35.3 66.97 35.25 67.05 35.19 67.12 35.14 67.2 35.09 67.28 35.04 67.36 34.98 67.44 34.93 67.52 34.88 67.6 34.83 67.68 34.77 67.76 34.72 67.84 34.67 67.92 34.62 68 34.57 68.08 34.52 68.16 34.47 68.24 34.41 68.32 34.36 68.4 34.31 68.48 34.26 68.56 34.21 68.64 34.16 68.72 34.11 68.8 34.05 68.87 34 68.95 33.95 69.03 33.9 69.11 33.85 69.19 33.79 69.27 33.74 69.35 33.69 69.43 33.64 69.51 33.59 69.59 33.53 69.67 33.48 69.75 33.43 69.83 33.38 69.91 33.32 69.99 33.27 70.07 33.22 70.15 33.17 70.23 33.11 70.31 33.06 70.39 33.01 70.47 32.95 70.55 32.9 70.62 32.84 70.7 32.79 70.78 32.73 70.86 32.68 70.94 32.62 71.02 32.57 71.1 32.52 71.18 32.46 71.26 32.41 71.34 32.35 71.42 32.3 71.5 32.25 71.58 32.19 71.66 32.14 71.74 32.08 71.82 32.03 71.9 31.97 71.98 31.92 72.06 31.86 72.14 31.81 72.22 31.75 72.3 31.7 72.37 31.64 72.45 31.59 72.53 31.53 72.61 31.48 72.69 31.42 72.77 31.36 72.85 31.31 72.93 31.25 73.01 31.2 73.09 31.14 73.17 31.08 73.25 31.03 73.33 30.97 73.41 30.91 73.49 30.86 73.57 30.8 73.65 30.75 73.73 30.69 73.81 30.64 73.89 30.58 73.97 30.53 74.05 30.48 74.12 30.42 74.2 30.37 74.28 30.32 74.36 30.26 74.44 30.21 74.52 30.15 74.6 30.1 74.68 30.05 74.76 29.99 74.84 29.94 74.92 29.89 75 29.83 75.08 29.78 75.16 29.72 75.24 29.67 75.32 29.62 75.4 29.56 75.48 29.51 75.56 29.46 75.64 29.4 75.72 29.35 75.8 29.29 75.87 29.24 75.95 29.19 76.03 29.13 76.11 29.08 76.19 29.02 76.27 28.97 76.35 28.92 76.43 28.86 76.51 28.81 76.59 28.76 76.67 28.7 76.75 28.65 76.83 28.59 76.91 28.54 76.99 28.49 77.07 28.43 77.15 28.38 77.23 28.32 77.31 28.27 77.39 28.22 77.47 28.16 77.55 28.11 77.62 28.06 77.7 28 77.78 27.95 77.86 27.89 77.94 27.84 78.02 27.79 78.1 27.73 78.18 27.68 78.26 27.62 78.34 27.57 78.42 27.52 78.5 27.46 78.58 27.41 78.66 27.35 78.74 27.3 78.82 27.25 78.9 27.19 78.98 27.14 79.06 27.08 79.14 27.03 79.22 26.97 79.3 26.92 79.37 26.87 79.45 26.81 79.53 26.76 79.61 26.7 79.69 26.65 79.77 26.59 79.85 26.54 79.93 26.49 80.01 26.43 80.09 26.38 80.17 26.32 80.25 26.27 80.33 26.21 80.41 26.16 80.49 26.11 80.57 26.05 80.65 26 80.73 25.94 80.81 25.89 80.89 25.83 80.97 25.78 81.05 25.72 81.12 25.67 81.2 25.61 81.28 25.56 81.36 25.5 81.44 25.45 81.52 25.39 81.6 25.34 81.68 25.29 81.76 25.23 81.84 25.18 81.92 25.12 82 25.07 82.08 25.01 82.16 24.96 82.24 24.9 82.32 24.85 82.4 24.79 82.48 24.74 82.56 24.68 82.64 24.63 82.72 24.57 82.8 24.52 82.87 24.46 82.95 24.4 83.03 24.35 83.11 24.29 83.19 24.24 83.27 24.18 83.35 24.13 83.43 24.07 83.51 24.02 83.59 23.96 83.67 23.91 83.75 23.85 83.83 23.8 83.91 23.74 83.99 23.68 84.07 23.63 84.15 23.57 84.23 23.52 84.31 23.46 84.39 23.41 84.47 23.35 84.55 23.29 84.62 23.24 84.7 23.18 84.78 23.13 84.86 23.07 84.94 23.01 85.02 22.96 85.1 22.9 85.18 22.85 85.26 22.79 85.34 22.73 85.42 22.68 85.5 22.62"/>
      </g>
    </g>
  </g>
</g>
  <g class="guide ylabels" font-size="2.82" font-family="'PT Sans Caption','Helvetica Neue','Helvetica',sans-serif" fill="#6C606B" id="img-051e4f1c-11">
    <text x="15.28" y="80.31" text-anchor="end" dy="0.35em">2</text>
    <text x="15.28" y="61.99" text-anchor="end" dy="0.35em">3</text>
    <text x="15.28" y="43.66" text-anchor="end" dy="0.35em">4</text>
    <text x="15.28" y="25.33" text-anchor="end" dy="0.35em">5</text>
    <text x="15.28" y="7" text-anchor="end" dy="0.35em">6</text>
  </g>
  <g font-size="3.88" font-family="'PT Sans','Helvetica Neue','Helvetica',sans-serif" fill="#564A55" stroke="#000000" stroke-opacity="0.000" id="img-051e4f1c-12">
    <text x="8.81" y="41.66" text-anchor="middle" dy="0.35em" transform="rotate(-90, 8.81, 43.66)">consump</text>
  </g>
</g>
<defs>
  <clipPath id="img-051e4f1c-4">
  <path d="M16.28,5 L 96.6 5 96.6 82.32 16.28 82.32" />
</clipPath>
</defs>
</svg>
